<svg xmlns="http://www.w3.org/2000/svg" width="262" height="245" viewBox="0 0 262 245" version="1.1">
	<path d="M -0 122.504 L -0 245.007 131.250 244.754 L 262.500 244.500 262.754 122.250 L 263.008 -0 131.504 -0 L 0 0 -0 122.504 M 0.484 123 C 0.484 190.375, 0.604 217.938, 0.750 184.250 C 0.896 150.563, 0.896 95.438, 0.750 61.750 C 0.604 28.063, 0.484 55.625, 0.484 123 M 66.161 15.085 C 57.783 16.160, 51.352 18.344, 40.716 23.725 C 17.695 35.371, 5.037 57.351, 5.008 85.730 C 4.986 106.097, 12.163 122.457, 30.570 144 C 42.788 158.301, 55.705 169.811, 85.558 193 C 97.879 202.571, 118.477 222.572, 124.951 231.250 C 127.310 234.412, 129.524 236.986, 129.870 236.969 C 130.217 236.952, 132.075 234.833, 134 232.261 C 139.832 224.468, 155.525 208.624, 165.289 200.673 C 170.355 196.548, 179.450 189.234, 185.500 184.421 C 215.379 160.648, 223.366 152.601, 242.270 127.219 C 246.830 121.096, 248.915 116.479, 251.745 106.236 C 254.048 97.900, 254.428 94.631, 254.385 83.500 C 254.339 71.682, 254.059 69.706, 251.302 61.770 C 247.214 50.006, 242.849 42.925, 234.500 34.519 C 220.589 20.511, 197.721 12.911, 176.372 15.198 C 161.674 16.773, 146.089 23.720, 135.111 33.590 L 129.877 38.296 125.689 34.290 C 110.632 19.888, 87.323 12.368, 66.161 15.085 M 67.227 36.435 C 55.879 40.650, 45.923 48.972, 40.120 59.092 C 36.179 65.965, 35.988 70.582, 39.578 72.217 C 43.098 73.821, 44.780 72.580, 48.817 65.399 C 55.368 53.746, 61.416 49.394, 76.505 45.474 C 87.175 42.701, 89 41.748, 89 38.949 C 89 33.486, 78.446 32.267, 67.227 36.435 M 37.200 82.200 C 35.208 84.192, 35.718 91.718, 38 94 C 43.451 99.451, 50.330 92.407, 46.600 85.194 C 44.468 81.071, 39.812 79.588, 37.200 82.200" stroke="none" fill="#4e5255" fill-rule="evenodd"/>
</svg>