<svg xmlns="http://www.w3.org/2000/svg" width="262" height="245" viewBox="0 0 262 245" version="1.1">
	<path d="M 66.161 15.085 C 57.527 16.193, 51.242 18.366, 39.773 24.207 C 31.798 28.269, 28.808 30.488, 23.170 36.525 C 11.549 48.969, 6.287 62.241, 5.340 81.500 C 4.614 96.258, 7.102 108.740, 12.731 118.578 C 22.937 136.415, 25.432 139.577, 43.445 157.501 C 53.983 167.988, 60.829 173.756, 85.571 193 C 97.895 202.585, 118.491 222.590, 124.951 231.250 C 127.310 234.412, 129.524 236.986, 129.870 236.969 C 130.217 236.952, 132.075 234.833, 134 232.261 C 139.832 224.468, 155.525 208.624, 165.289 200.673 C 170.355 196.548, 179.450 189.234, 185.500 184.421 C 210.380 164.625, 220.032 155.527, 232.501 140.116 C 246.791 122.454, 249.848 116.319, 253.611 97.751 C 259.579 68.298, 244.550 35.486, 219.686 23.685 C 208.398 18.326, 200.927 16.036, 191.887 15.162 C 171.254 13.168, 150.240 19.988, 135.111 33.590 L 129.877 38.296 125.689 34.290 C 110.632 19.888, 87.323 12.368, 66.161 15.085 M 67.227 36.435 C 55.879 40.650, 45.923 48.972, 40.120 59.092 C 36.179 65.965, 35.988 70.582, 39.578 72.217 C 43.098 73.821, 44.780 72.580, 48.817 65.399 C 55.368 53.746, 61.416 49.394, 76.505 45.474 C 87.175 42.701, 89 41.748, 89 38.949 C 89 33.486, 78.446 32.267, 67.227 36.435 M 37.035 82.934 C 35.310 86.158, 35.802 91.802, 38 94 C 43.428 99.428, 50.255 92.262, 46.526 85.051 C 44.254 80.658, 38.893 79.462, 37.035 82.934" stroke="none" fill="#4f5354" fill-rule="evenodd"/>
</svg>