<svg xmlns="http://www.w3.org/2000/svg" width="262" height="245" viewBox="0 0 262 245" version="1.1">
	<path d="M 66.161 15.085 C 57.783 16.160, 51.352 18.344, 40.716 23.725 C 17.599 35.420, 4.992 57.415, 5.023 86 C 5.034 95.802, 8.255 110.831, 11.620 116.778 C 17.785 127.672, 22.914 135.040, 30.570 144 C 42.788 158.301, 55.705 169.811, 85.558 193 C 97.879 202.571, 118.477 222.572, 124.951 231.250 C 127.310 234.412, 129.524 236.986, 129.870 236.969 C 130.217 236.952, 132.075 234.833, 134 232.261 C 139.832 224.468, 155.525 208.624, 165.289 200.673 C 170.355 196.548, 179.450 189.234, 185.500 184.421 C 215.447 160.594, 226.763 149.101, 243.408 125.604 C 250.759 115.227, 254.414 101.186, 254.368 83.500 C 254.338 71.658, 254.065 69.723, 251.302 61.770 C 247.214 50.006, 242.849 42.925, 234.500 34.519 C 220.589 20.511, 197.721 12.911, 176.372 15.198 C 161.674 16.773, 146.089 23.720, 135.111 33.590 L 129.877 38.296 125.689 34.290 C 110.632 19.888, 87.323 12.368, 66.161 15.085 M 67.227 36.435 C 55.879 40.650, 45.923 48.972, 40.120 59.092 C 36.179 65.965, 35.988 70.582, 39.578 72.217 C 43.098 73.821, 44.780 72.580, 48.817 65.399 C 55.368 53.746, 61.416 49.394, 76.505 45.474 C 87.175 42.701, 89 41.748, 89 38.949 C 89 33.486, 78.446 32.267, 67.227 36.435 M 37.200 82.200 C 35.208 84.192, 35.718 91.718, 38 94 C 43.451 99.451, 50.330 92.407, 46.600 85.194 C 44.468 81.071, 39.812 79.588, 37.200 82.200" stroke="none" fill="#ff0000" fill-rule="evenodd"/>
</svg>